# xmcd
#
# Track frame offsets:
# 150
# 16691
# 39954
# 68575
# 87506
# 108243
# 134825
# 158166
# 179790
# 192907
#
# Disc length: 2873 seconds
#
#
# Revision: 0
# Processed by: cddbd v1.4PL0 Copyright (c) Steve Scherf et al.
# Submitted via: FreeRIP 2.00 
#
DISCID=820b370a
DTITLE=Yavuz Cetin - Satilik
DYEAR=1997
DGENRE=Blues
TTITLE0=Cherokee
TTITLE1=Oyuncak Dunya
TTITLE2=Benimle Ucmak Ister misin
TTITLE3=Bul Beni
TTITLE4=Sadece Senin Olmak
TTITLE5=Yasamak Istemem
TTITLE6=Kurtar Beni
TTITLE7=Kole
TTITLE8=Istanbul'a ait
TTITLE9=Hersey Biter
EXTD=
EXTT0=
EXTT1=
EXTT2=
EXTT3=
EXTT4=
EXTT5=
EXTT6=
EXTT7=
EXTT8=
EXTT9=
PLAYORDER=
